<?xml version="1.0" standalone="no"?>
<!DOCTYPE svg PUBLIC "-//W3C//DTD SVG 20010904//EN"
 "http://www.w3.org/TR/2001/REC-SVG-20010904/DTD/svg10.dtd">
<svg version="1.0" xmlns="http://www.w3.org/2000/svg"
 width="512.000000pt" height="512.000000pt" viewBox="0 0 512.000000 512.000000"
 preserveAspectRatio="xMidYMid meet">
<metadata>
Created by potrace 1.14, written by Peter Selinger 2001-2017
</metadata>
<g transform="translate(0.000000,512.000000) scale(0.100000,-0.100000)"
fill="#000000" stroke="none">
<path d="M3039 3903 c-8 -1 -61 -7 -119 -13 -100 -12 -265 -53 -340 -86 -19
-8 -74 -35 -121 -59 -48 -24 -89 -42 -93 -40 -3 3 -4 2 -1 -2 8 -10 -47 -43
-59 -36 -6 3 -8 3 -4 -2 4 -4 -21 -30 -57 -56 -35 -27 -66 -53 -70 -59 -3 -6
-11 -7 -17 -4 -6 4 -8 2 -4 -4 8 -13 -48 -55 -59 -44 -5 4 -5 2 -2 -4 3 -6
-12 -32 -35 -57 -34 -40 -43 -45 -57 -35 -13 10 -14 10 -4 -2 10 -10 8 -19 -8
-42 -11 -15 -25 -25 -31 -22 -6 4 -8 2 -4 -4 8 -13 -68 -124 -78 -114 -4 4 -6
3 -4 -3 4 -13 -90 -155 -103 -155 -5 0 -8 -3 -7 -7 3 -16 -15 -43 -25 -36 -5
3 -7 1 -4 -4 6 -9 -22 -56 -43 -73 -4 -3 -9 -13 -13 -23 -4 -10 -12 -15 -17
-12 -6 4 -10 3 -9 -2 3 -19 -2 -34 -9 -29 -5 3 -9 0 -9 -7 0 -21 -35 -67 -46
-60 -5 3 -7 2 -4 -4 4 -5 -3 -20 -14 -31 -11 -12 -17 -22 -14 -22 4 0 -6 -17
-22 -37 -16 -21 -37 -51 -46 -66 -10 -15 -23 -25 -29 -21 -7 4 -8 3 -4 -4 8
-14 -23 -64 -35 -56 -5 3 -6 -2 -3 -10 3 -9 2 -16 -4 -16 -5 0 -12 -9 -15 -21
-4 -13 -10 -18 -18 -13 -7 4 -10 3 -5 -4 3 -6 -1 -17 -9 -25 -8 -9 -15 -19
-15 -22 0 -15 -64 -94 -71 -89 -5 3 -6 -3 -2 -12 5 -14 3 -16 -11 -11 -10 4
-15 3 -11 -3 9 -15 -34 -82 -47 -74 -7 4 -8 2 -4 -4 4 -7 2 -17 -4 -24 -39
-46 -50 -62 -50 -70 0 -5 -5 -6 -12 -2 -6 4 -8 3 -5 -3 6 -9 -31 -71 -62 -105
-32 -34 -42 -48 -34 -48 4 0 -1 -7 -12 -16 -11 -8 -20 -18 -19 -22 2 -16 -69
-111 -79 -105 -5 3 -8 2 -4 -3 3 -5 -10 -32 -29 -59 -19 -28 -49 -71 -66 -97
-18 -26 -37 -44 -42 -41 -6 4 -8 3 -4 -2 11 -12 -11 -47 -25 -39 -7 4 -9 4 -5
-1 10 -11 -11 -47 -22 -40 -6 3 -7 0 -5 -8 3 -7 -5 -25 -19 -40 -14 -15 -22
-27 -18 -27 4 -1 -4 -10 -17 -20 -13 -11 -20 -20 -16 -20 8 0 -65 -104 -77
-108 -4 -2 -8 -9 -8 -16 0 -6 -13 -26 -29 -44 -17 -17 -28 -32 -25 -32 3 0 -9
-20 -27 -45 -18 -25 -36 -45 -41 -45 -4 0 -7 -6 -5 -12 1 -7 -4 -12 -11 -10
-8 1 -11 -2 -7 -8 4 -6 2 -17 -5 -25 -17 -20 -15 -73 3 -93 9 -10 15 -28 12
-40 -2 -12 1 -22 7 -22 5 0 8 6 5 14 -10 25 6 28 21 4 7 -13 11 -16 9 -8 -4
13 10 16 98 15 57 0 101 -3 99 -6 -2 -4 3 -9 11 -13 8 -3 17 0 21 6 4 7 3 8
-4 4 -7 -4 -12 -2 -12 3 0 16 10 14 34 -7 20 -16 20 -16 7 1 -12 15 -9 21 12
18 4 0 7 4 7 10 0 11 25 39 35 39 3 0 3 -5 -1 -12 -4 -7 -3 -8 4 -4 6 4 8 14
5 23 -5 13 -2 15 12 10 14 -6 16 -5 6 7 -9 11 -8 15 4 20 8 3 15 9 14 13 -3
20 2 25 15 14 11 -9 16 -9 22 0 4 7 3 9 -4 5 -20 -12 -18 19 2 37 12 10 14 15
6 11 -12 -6 -13 -5 -2 7 11 12 14 12 23 -1 7 -11 8 -7 3 13 -5 22 -3 26 10 21
9 -3 13 -11 9 -17 -4 -6 -1 -7 6 -2 9 5 10 10 2 18 -6 6 -11 16 -11 23 0 15
29 27 44 17 7 -5 5 -1 -4 7 -15 14 -15 17 1 34 11 11 23 15 31 10 7 -4 10 -4
6 1 -4 4 -2 15 5 24 11 14 10 14 -6 2 -15 -12 -17 -12 -11 3 3 9 13 16 21 16
8 0 11 5 8 10 -3 6 -1 10 5 10 6 0 9 4 6 8 -8 13 9 31 33 35 23 4 43 25 35 38
-2 4 0 10 6 14 5 3 10 12 10 18 0 7 -6 3 -13 -8 -11 -19 -13 -24 -16 -43 0 -5
-7 -9 -15 -9 -16 0 27 71 58 96 9 8 16 21 16 30 0 14 2 14 11 1 8 -12 9 -11 7
5 -3 22 68 122 84 117 5 -1 8 3 6 10 -4 23 22 60 39 54 12 -5 13 -4 5 7 -12
14 -7 27 10 27 5 0 6 -4 3 -10 -3 -5 -1 -10 4 -10 14 0 14 13 0 27 -7 7 -4 16
13 29 13 11 24 26 26 34 2 8 8 18 14 21 5 3 10 10 10 15 1 12 45 64 54 64 4 0
-5 -15 -22 -32 -23 -27 -24 -29 -3 -10 14 12 28 19 31 16 8 -7 5 17 -3 31 -10
17 34 71 56 68 11 -2 14 0 8 3 -19 8 -16 27 3 20 14 -5 15 -4 5 7 -9 11 -8 17
3 27 9 6 19 9 24 6 6 -3 16 2 23 12 13 15 12 16 -3 4 -12 -9 -18 -10 -23 -2
-4 7 2 14 15 17 16 4 18 8 8 14 -9 6 -6 9 12 9 20 0 22 2 10 10 -13 9 -13 12
2 24 10 7 17 15 15 17 -1 2 0 3 2 2 2 -1 13 14 24 35 11 20 25 40 31 44 6 4
11 13 11 19 0 7 7 14 15 16 13 4 13 3 0 -6 -14 -10 -13 -12 9 -15 5 0 13 -5
18 -10 4 -5 3 -6 -3 -3 -7 4 -14 0 -17 -8 -4 -8 -1 -12 6 -9 7 2 13 -4 14 -16
1 -11 -2 -20 -8 -20 -5 0 -9 -4 -9 -10 0 -5 7 -7 15 -4 10 4 13 0 10 -17 -3
-13 1 -27 8 -31 9 -6 8 -8 -3 -8 -10 0 -11 -3 -3 -8 6 -4 14 -21 17 -37 6 -26
5 -27 -3 -7 -6 12 -13 22 -15 22 -8 0 5 -33 20 -50 17 -21 22 -56 7 -52 -7 1
-13 -3 -13 -9 0 -6 8 -8 18 -5 12 4 19 1 20 -9 1 -8 3 -22 4 -30 1 -8 5 -15
10 -15 4 0 8 -5 8 -11 0 -5 -6 -7 -12 -3 -7 4 -10 4 -6 -1 4 -4 2 -15 -4 -24
-10 -13 -10 -14 2 -3 21 18 27 15 39 -18 6 -18 6 -28 1 -25 -6 3 -7 -1 -4 -9
3 -9 11 -13 17 -9 6 3 7 1 3 -5 -4 -7 -2 -12 3 -12 6 0 10 -3 9 -7 0 -5 6 -24
15 -43 9 -19 16 -30 17 -25 1 14 20 -17 20 -33 0 -7 -4 -11 -9 -7 -5 3 -12 1
-15 -4 -3 -4 3 -8 14 -7 11 0 18 -3 17 -7 -1 -5 6 -13 16 -18 20 -12 23 -35 5
-43 -7 -3 -4 -4 8 -1 12 3 26 0 32 -7 10 -13 12 -18 12 -40 0 -6 3 -8 7 -5 7
8 32 -23 33 -41 0 -8 -5 -10 -12 -6 -7 4 -9 3 -5 -1 11 -13 38 -15 31 -3 -5 7
-2 8 5 4 7 -5 10 -14 7 -22 -4 -10 0 -14 11 -12 10 2 18 -3 18 -10 0 -8 8 -20
18 -27 13 -10 15 -14 5 -18 -7 -3 -3 -6 8 -6 12 -1 38 -19 57 -40 19 -22 39
-36 43 -33 5 4 2 -1 -5 -11 -12 -15 -12 -17 3 -11 20 8 49 -14 42 -32 -3 -7 2
-18 10 -25 9 -7 12 -20 8 -33 -8 -25 -1 -20 16 13 6 13 7 21 2 17 -6 -3 -14
-1 -17 5 -5 7 0 10 11 7 13 -2 19 -12 18 -30 -1 -15 3 -25 7 -22 5 3 18 0 29
-6 16 -8 18 -8 14 4 -3 9 -9 15 -12 14 -21 -2 -32 3 -26 13 4 8 9 7 15 -2 5
-8 9 -9 9 -4 0 6 14 -6 31 -25 17 -19 28 -28 24 -20 -4 10 -1 9 8 -2 8 -10 21
-18 29 -18 8 0 24 -9 35 -19 12 -11 23 -17 26 -14 3 2 14 0 24 -7 17 -10 17
-11 -2 -5 -16 4 -21 0 -22 -17 -1 -13 1 -18 5 -12 10 15 51 24 58 13 3 -5 10
-6 16 -3 7 4 8 2 4 -5 -4 -6 -11 -9 -15 -7 -4 3 -8 -1 -8 -9 0 -11 5 -10 24 2
20 14 23 14 29 0 3 -9 14 -14 25 -12 10 2 21 -1 24 -6 4 -5 10 -7 15 -4 5 3
11 1 15 -5 4 -6 11 -7 17 -4 6 4 5 -3 -2 -16 -12 -22 -11 -22 10 -7 18 12 26
13 41 4 11 -7 19 -16 19 -21 0 -4 -6 -4 -12 1 -19 14 -41 10 -45 -7 -3 -9 -1
-11 4 -5 14 18 38 11 36 -10 -1 -20 -1 -20 13 -1 8 11 14 23 14 27 0 8 16 6
43 -6 10 -4 31 -8 47 -9 30 -1 38 -10 21 -20 -5 -4 -11 -1 -13 6 -3 8 -6 6
-10 -4 -7 -16 7 -19 29 -5 6 4 14 3 18 -3 3 -5 11 -10 18 -10 6 0 2 7 -9 15
-22 17 -12 20 17 4 11 -5 16 -15 13 -21 -4 -7 -3 -8 5 -4 6 4 9 12 6 17 -4 5
-1 9 4 9 6 0 11 -4 11 -9 0 -5 10 -11 23 -14 20 -5 20 -5 5 7 -15 11 -14 13
13 13 19 0 25 -3 17 -9 -10 -6 -8 -8 5 -8 9 0 17 6 17 12 0 7 8 1 17 -12 10
-14 17 -29 15 -33 -1 -4 7 -3 18 3 17 9 20 30 4 30 -3 0 -2 -5 2 -11 4 -7 1
-10 -7 -7 -8 3 -13 11 -11 17 1 8 -3 10 -10 5 -7 -4 -10 -3 -5 1 9 10 47 14
47 5 0 -9 73 -6 89 4 10 6 12 5 7 -2 -5 -8 0 -12 13 -12 12 0 21 5 21 11 0 6
7 4 15 -5 16 -15 49 -11 39 5 -9 15 8 10 20 -5 18 -23 49 -24 55 -1 3 11 13
20 21 19 8 0 23 4 34 9 14 7 17 6 13 -5 -2 -7 -11 -12 -18 -10 -8 2 -10 0 -6
-4 11 -11 38 -14 31 -3 -3 5 0 9 5 9 6 0 10 5 9 12 -2 7 7 13 20 14 12 1 23 2
25 3 2 2 14 5 62 15 6 1 16 5 23 9 7 5 12 4 12 -2 0 -6 4 -11 10 -11 5 0 7 6
4 14 -5 14 18 17 32 4 3 -4 13 -4 22 -1 11 5 13 3 7 -7 -5 -8 -4 -11 3 -6 6 4
9 13 5 22 -4 11 -9 12 -19 3 -9 -7 -14 -8 -14 -1 0 5 13 15 29 20 23 8 32 7
42 -4 6 -8 16 -14 21 -14 5 0 2 7 -6 16 -18 17 -21 28 -7 19 5 -3 12 -1 16 5
4 6 11 8 16 5 5 -4 9 -1 9 4 0 6 6 11 14 11 8 0 16 5 18 11 2 6 19 12 37 14
19 1 41 11 50 22 21 25 58 52 47 36 -4 -7 -2 -13 3 -13 6 0 11 9 11 21 0 11 4
17 10 14 19 -12 50 -14 50 -3 0 5 -7 8 -15 5 -8 -4 -17 -2 -20 2 -8 14 25 22
46 11 15 -8 21 -7 25 5 3 8 4 21 1 29 -3 8 1 20 9 26 11 10 14 10 14 0 0 -7 6
-10 14 -7 18 7 36 -12 29 -31 -4 -10 -2 -13 5 -8 6 3 14 1 18 -5 4 -8 3 -9 -4
-5 -7 4 -12 3 -12 -3 0 -5 12 -11 28 -13 20 -2 26 -8 24 -21 -2 -11 2 -17 10
-15 20 4 57 -33 50 -50 -4 -12 -1 -14 13 -9 16 7 16 5 4 -10 -9 -11 -9 -14 -2
-9 19 11 53 -11 46 -30 -4 -10 -1 -14 8 -12 15 3 73 -50 74 -67 1 -5 6 -9 13
-7 7 1 12 -8 13 -20 0 -22 1 -22 9 -3 5 11 9 15 9 10 1 -7 39 -10 100 -10 55
0 97 -3 95 -7 -3 -5 0 -8 5 -8 6 0 11 5 11 10 0 6 11 3 24 -5 18 -12 26 -13
32 -4 4 7 3 9 -2 6 -6 -3 -16 -2 -24 3 -10 6 -4 8 20 6 45 -4 90 30 90 69 0
14 5 25 10 25 11 0 -6 21 -62 76 -20 20 -35 41 -34 47 2 7 1 8 -2 3 -2 -4 -42
29 -88 75 -60 59 -80 86 -71 92 8 6 7 7 -4 4 -19 -6 -104 75 -92 88 5 4 3 5
-3 2 -6 -3 -29 13 -52 37 -30 31 -38 46 -30 54 8 8 4 10 -13 6 -13 -2 -18 -2
-11 2 6 3 9 10 6 15 -3 5 8 25 25 45 17 19 31 39 31 45 0 6 4 7 10 4 6 -4 7 1
3 11 -5 14 -3 16 12 11 13 -6 15 -4 8 5 -12 15 19 73 32 60 4 -4 5 1 1 12 -4
13 -2 17 7 13 8 -3 14 1 14 9 0 7 -4 11 -9 8 -4 -3 -5 3 -1 12 6 16 7 15 20
-2 16 -22 17 -11 2 18 -10 18 -8 19 13 13 23 -7 23 -7 3 9 -18 14 -18 18 -5
29 8 6 15 18 16 25 2 29 5 33 17 26 8 -5 8 -2 -2 9 -10 13 -10 17 -1 17 7 0
10 7 7 15 -4 8 -1 17 5 21 6 4 8 3 5 -3 -3 -5 0 -10 8 -10 13 0 13 3 0 17 -8
9 -12 20 -8 24 5 4 8 11 9 14 2 32 29 122 36 122 4 0 8 5 8 11 0 5 -4 8 -9 5
-12 -8 -2 35 13 53 9 12 8 13 -3 7 -10 -7 -11 -3 -5 15 4 13 7 32 6 42 0 11 4
15 11 11 8 -5 8 -3 0 7 -15 15 -18 63 -4 54 5 -3 13 0 17 6 4 7 3 9 -4 5 -6
-3 -13 -2 -17 4 -3 5 0 10 7 10 10 0 10 2 -1 9 -8 5 -9 11 -3 15 5 3 7 18 4
32 -4 20 -2 25 8 19 6 -4 4 4 -5 19 -15 22 -15 29 -4 43 8 9 9 14 2 10 -8 -5
-12 11 -15 53 -2 36 1 60 7 60 6 0 5 4 -2 8 -6 4 -14 23 -17 42 -15 90 -27
139 -45 183 -6 16 -7 26 -2 22 5 -3 13 0 17 6 4 7 3 9 -3 6 -6 -4 -16 0 -23 8
-10 12 -10 18 0 30 11 13 10 14 -5 8 -14 -5 -17 -3 -12 10 3 9 3 17 -2 17 -12
0 -62 121 -54 133 3 5 1 7 -4 4 -6 -4 -18 8 -27 26 -8 17 -24 45 -35 61 -11
17 -18 34 -15 38 3 5 2 7 -3 6 -4 -2 -9 1 -10 6 -1 5 -5 12 -10 15 -4 3 -33
35 -63 71 -30 35 -63 72 -73 83 -10 10 -15 22 -12 28 4 5 3 8 -2 7 -13 -4 -93
64 -87 74 3 5 2 7 -3 6 -13 -4 -63 38 -55 47 4 3 3 5 -3 3 -15 -4 -56 27 -47
37 4 5 2 5 -5 2 -6 -4 -18 0 -26 8 -9 8 -18 15 -22 15 -8 0 -69 43 -73 53 -2
4 -7 5 -12 2 -5 -3 -16 2 -24 11 -9 8 -16 12 -16 8 0 -4 -8 0 -17 8 -10 8 -30
18 -45 22 -15 3 -33 13 -41 21 -8 8 -17 12 -19 9 -4 -4 -18 1 -93 31 -24 10
-21 9 -70 19 -22 4 -44 11 -50 14 -11 7 -20 9 -102 18 -35 4 -63 10 -63 13 0
5 -221 9 -261 4z m219 -355 c7 -1 11 -7 8 -14 -7 -19 11 -27 31 -14 15 9 14
10 -7 6 -14 -3 -19 -3 -12 0 6 3 10 9 8 13 -3 4 1 8 9 8 8 0 15 -4 15 -9 0 -5
10 -9 23 -8 12 1 25 1 30 0 4 -1 12 -4 17 -5 6 -1 12 -4 15 -5 3 -1 15 -3 27
-4 22 -1 39 -26 18 -26 -6 0 -9 4 -6 8 2 4 -6 8 -20 8 -13 0 -24 -4 -24 -9 0
-5 6 -7 13 -4 7 3 21 -1 32 -9 23 -17 35 -18 35 -3 0 5 -4 7 -10 4 -6 -3 -7 1
-3 10 3 9 9 12 12 7 3 -5 18 -12 34 -16 15 -3 27 -11 27 -17 0 -8 -5 -7 -15 1
-13 11 -14 10 -9 -4 7 -18 20 -21 29 -6 3 6 15 6 29 0 13 -5 27 -6 30 -3 3 3
8 -2 12 -11 3 -9 10 -13 15 -10 5 3 6 -3 2 -13 -6 -15 -4 -16 9 -5 10 8 19 9
22 3 4 -5 27 -20 51 -32 25 -12 45 -26 45 -31 0 -4 7 -8 16 -8 8 0 13 -4 10
-8 -2 -4 8 -13 24 -20 15 -7 31 -20 35 -29 5 -15 4 -15 -12 -1 -10 8 -25 18
-33 23 -8 4 -1 -4 15 -18 23 -20 33 -23 44 -14 11 10 13 8 6 -13 -6 -20 -5
-23 5 -13 10 9 21 4 51 -25 24 -24 34 -41 28 -48 -6 -7 -3 -16 8 -25 16 -13
17 -12 4 4 -9 11 -10 17 -2 17 18 0 26 -31 10 -41 -9 -6 -10 -9 -2 -9 6 0 15
5 18 10 4 6 11 8 16 4 6 -4 6 -10 -1 -19 -8 -10 -6 -13 7 -11 11 0 17 -5 17
-16 -1 -10 2 -16 6 -13 10 6 32 -20 23 -28 -3 -4 -1 -7 6 -7 7 0 10 -4 7 -9
-3 -5 1 -11 9 -15 9 -3 12 -12 8 -22 -5 -13 -3 -15 7 -9 10 6 12 3 7 -15 -4
-16 -1 -23 13 -27 12 -3 16 -11 13 -21 -5 -11 -3 -13 8 -7 11 7 11 5 -1 -10
-8 -10 -10 -16 -3 -12 11 7 40 -42 47 -78 1 -5 5 -15 9 -22 4 -6 4 -19 0 -29
-4 -10 -2 -15 4 -11 9 6 11 1 15 -43 1 -11 7 -20 13 -20 5 0 3 -4 -5 -9 -8 -6
-18 -7 -24 -4 -5 3 -6 1 -2 -5 4 -6 14 -8 23 -5 10 4 14 2 9 -5 -3 -6 -2 -13
4 -17 5 -3 8 -19 5 -36 -4 -19 -1 -29 7 -29 9 0 8 -3 -2 -10 -10 -6 -11 -10
-2 -10 6 0 12 -9 12 -20 0 -11 -6 -20 -12 -20 -9 0 -10 -3 -2 -8 14 -9 24 -61
13 -68 -5 -3 -9 -11 -9 -17 0 -7 4 -6 11 3 8 12 9 9 3 -9 -3 -13 -6 -42 -6
-65 1 -22 -4 -46 -10 -53 -6 -7 -7 -13 -3 -13 5 0 0 -10 -11 -22 -17 -20 -17
-21 -1 -9 17 13 18 12 12 -15 -4 -16 -9 -36 -12 -44 -3 -8 -7 -26 -9 -39 -3
-14 -8 -29 -12 -35 -3 -6 -7 -17 -8 -24 -2 -8 -6 -21 -10 -30 -4 -9 -8 -23
-10 -30 -5 -27 -67 -142 -75 -142 -5 0 -8 -6 -7 -12 2 -7 -3 -12 -10 -10 -8 1
-11 -2 -8 -7 8 -13 -4 -42 -15 -35 -5 3 -9 0 -9 -6 0 -7 -40 28 -89 76 -60 60
-86 91 -78 97 8 5 7 7 -4 5 -14 -3 -168 142 -360 337 -27 28 -54 55 -60 60
-93 87 -186 185 -181 191 4 4 2 4 -4 1 -13 -8 -86 68 -76 78 4 4 2 5 -4 3 -13
-4 -440 420 -436 433 1 5 -2 8 -6 7 -12 -4 -131 113 -128 126 2 6 1 7 -2 3 -2
-4 -21 9 -41 29 -27 25 -37 43 -35 60 1 13 -2 22 -7 18 -5 -3 -7 -10 -4 -15 4
-5 1 -9 -4 -9 -15 0 -14 27 2 32 17 7 38 -2 32 -13 -4 -5 1 -6 10 -3 14 6 14
8 -2 19 -15 11 -15 13 8 26 24 13 30 15 50 18 5 0 7 6 3 13 -5 7 -3 8 6 3 7
-4 16 -2 22 6 8 11 9 11 5 -2 -3 -9 1 -16 8 -16 7 0 11 6 9 12 -3 7 6 20 20
29 15 9 26 14 26 10 0 -4 7 -1 15 6 8 7 15 9 15 6 0 -4 8 -2 18 3 13 7 23 6
31 -2 10 -9 11 -9 6 4 -3 9 -1 16 7 16 23 1 43 8 51 18 5 6 7 4 4 -5 -2 -8
-10 -14 -16 -12 -13 3 -15 -5 -2 -13 6 -3 19 4 30 16 18 20 21 20 36 5 20 -19
26 -20 23 -4 -2 7 2 12 9 13 7 0 17 5 24 12 6 6 17 9 24 7 7 -3 15 -2 18 3 4
7 208 8 255 1z m-328 -12 c0 -3 -4 -8 -10 -11 -5 -3 -10 -1 -10 4 0 6 5 11 10
11 6 0 10 -2 10 -4z m-666 -437 c-2 -4 -1 -9 3 -12 5 -2 3 -2 -4 -1 -7 2 -15
-1 -17 -5 -3 -5 7 -8 23 -7 23 0 43 -14 96 -66 37 -38 61 -69 55 -73 -5 -3
-10 -12 -9 -18 0 -9 2 -9 6 1 2 6 10 12 17 12 15 0 64 -50 50 -51 -5 0 1 -4
13 -9 12 -5 31 -27 42 -49 12 -22 26 -43 32 -47 6 -3 3 6 -6 22 -9 16 -11 22
-4 13 8 -8 23 -21 34 -27 11 -6 14 -12 8 -12 -7 0 -13 -4 -13 -10 0 -5 7 -7
15 -4 12 5 14 2 8 -12 -6 -17 -5 -18 13 -4 10 8 16 10 12 6 -5 -5 6 -18 23
-28 29 -18 33 -43 4 -31 -8 3 -15 0 -15 -5 0 -6 11 -9 24 -6 18 3 33 -6 64
-41 22 -24 43 -41 48 -37 5 4 2 -2 -6 -12 -14 -18 -13 -18 10 -11 l24 8 -19
-29 -18 -29 22 19 c22 20 22 20 15 0 -7 -16 -5 -17 8 -6 12 10 18 9 28 -3 7
-8 9 -15 4 -15 -4 0 1 -7 12 -16 10 -8 14 -13 8 -10 -6 3 -11 -1 -11 -9 0 -11
5 -12 20 -4 17 10 18 8 12 -13 -7 -19 -5 -21 6 -11 11 9 19 6 39 -15 l25 -27
-30 19 c-16 10 -27 15 -23 11 4 -5 2 -15 -5 -24 -11 -14 -10 -14 6 -2 15 12
21 9 19 -10 -1 -3 11 -4 25 -1 18 3 24 1 19 -7 -4 -6 -1 -11 8 -11 8 0 23 -14
33 -30 9 -17 26 -33 36 -36 13 -4 16 -9 9 -16 -8 -8 -6 -15 4 -26 8 -8 13 -21
10 -28 -3 -7 0 -16 7 -20 7 -4 9 -4 5 1 -4 4 -3 17 3 28 7 12 7 17 1 13 -5 -3
-13 1 -16 9 -4 12 -2 13 12 6 21 -11 68 -71 65 -82 -2 -5 4 -6 13 -2 10 4 17
-2 21 -16 3 -11 10 -18 16 -14 6 4 8 -4 5 -20 -3 -14 -2 -26 1 -25 19 2 22 -4
10 -19 -12 -16 -12 -17 2 -6 19 15 64 6 50 -11 -6 -8 -6 -17 1 -26 8 -12 9
-12 4 3 -3 11 0 17 10 17 11 0 14 -6 9 -22 -6 -19 -5 -21 6 -11 17 17 44 -4
29 -22 -8 -10 -8 -15 1 -21 8 -4 9 -3 5 4 -10 16 5 15 27 -2 10 -8 14 -17 8
-20 -5 -3 -12 0 -14 6 -4 8 -6 9 -6 2 -1 -6 7 -18 16 -25 11 -10 14 -10 9 -1
-10 16 0 15 29 -4 14 -9 25 -23 25 -31 0 -8 4 -12 9 -9 4 3 17 -4 27 -16 11
-12 13 -18 7 -14 -7 4 -13 2 -13 -3 0 -6 9 -11 20 -11 22 0 45 -44 34 -62 -5
-7 -2 -8 5 -4 7 5 10 15 7 25 -5 12 -2 11 11 -4 10 -11 29 -30 42 -41 17 -16
20 -24 10 -29 -8 -5 -10 -4 -5 3 4 7 5 12 2 12 -14 0 -14 -19 1 -31 12 -10 14
-10 9 -1 -4 7 -1 12 9 12 12 0 15 -5 9 -22 -6 -19 -5 -21 8 -11 12 11 19 8 39
-14 13 -14 18 -23 12 -19 -7 4 -13 2 -13 -3 0 -6 7 -11 15 -11 18 0 115 -89
115 -105 0 -12 -36 -45 -49 -45 -5 0 -11 -4 -13 -9 -6 -15 -157 -93 -168 -86
-5 3 -10 2 -10 -4 0 -11 -139 -59 -185 -64 -17 -2 -35 -6 -40 -9 -14 -8 -110
-20 -180 -23 -56 -2 -146 6 -205 19 -109 23 -159 39 -153 49 3 6 1 7 -6 3 -13
-8 -81 14 -81 27 0 4 -4 6 -9 3 -14 -9 -42 5 -34 17 3 6 1 7 -5 3 -12 -7 -74
21 -80 37 -2 4 -10 7 -18 7 -8 0 -14 5 -14 11 0 5 -5 7 -10 4 -6 -3 -13 1 -16
9 -3 9 -10 13 -15 10 -5 -3 -9 0 -9 5 0 6 -6 11 -13 11 -19 0 -49 35 -40 45 5
4 3 5 -4 1 -15 -8 -54 24 -46 37 3 6 2 7 -4 4 -10 -6 -140 126 -136 137 2 3
-9 17 -23 31 -15 15 -23 32 -20 41 3 8 2 12 -4 9 -8 -5 -41 45 -40 60 0 3 -6
13 -15 22 -9 8 -14 22 -11 29 3 8 1 14 -4 14 -9 0 -26 39 -22 53 1 4 -2 7 -7
7 -5 0 -12 11 -15 24 -3 13 -9 32 -13 42 -5 13 -3 15 8 10 8 -4 6 -1 -3 7 -22
17 -29 63 -10 59 8 -1 11 2 7 8 -3 6 -10 8 -15 5 -7 -5 -16 20 -26 73 -3 16
-1 21 7 17 6 -4 4 4 -5 17 -16 24 -20 112 -5 102 4 -2 11 0 14 6 4 6 3 10 -2
9 -4 -1 -14 -1 -22 0 -11 1 -11 4 0 18 10 11 10 14 2 9 -8 -4 -13 -1 -13 9 0
9 4 14 10 10 5 -3 8 9 6 30 -3 27 0 35 13 36 14 0 14 1 1 7 -9 4 -15 13 -14
20 1 6 2 21 3 33 1 13 5 18 14 13 9 -6 9 -4 -1 8 -8 10 -9 19 -3 22 5 3 7 15
4 26 -4 13 1 27 13 36 11 9 13 12 5 8 -10 -5 -12 -3 -5 7 5 8 9 19 10 24 0 6
2 16 2 23 1 8 7 10 15 6 9 -5 9 -4 1 5 -9 9 -7 22 6 49 10 20 16 41 12 46 -3
5 2 7 11 3 11 -4 20 1 27 14 6 10 7 19 3 18 -20 -3 -23 3 -11 24 7 12 12 24
13 27 0 3 10 19 23 37 12 17 22 35 22 40 0 5 7 18 16 29 14 18 14 18 3 -6 -11
-23 -11 -24 5 -11 10 8 15 22 13 32 -3 13 0 16 11 12 9 -4 13 -2 9 4 -3 5 0
10 8 10 8 0 12 -4 9 -8z m-134 -209 c0 -5 -2 -10 -4 -10 -3 0 -8 5 -11 10 -3
6 -1 10 4 10 6 0 11 -4 11 -10z m1115 -750 c16 -17 16 -20 3 -15 -9 4 -19 13
-22 21 -7 19 -2 18 19 -6z m775 -865 c0 -9 -6 -12 -15 -9 -8 4 -15 10 -15 15
0 5 7 9 15 9 8 0 15 -7 15 -15z m-166 -90 c-4 -8 -11 -12 -16 -9 -6 4 -5 10 3
15 19 12 19 11 13 -6z m-514 -190 c0 -8 -7 -11 -20 -8 -11 3 -20 8 -20 12 0 4
9 7 20 8 11 1 20 -4 20 -12z"/>
<path d="M3009 3548 c-5 -18 -6 -38 -1 -34 7 8 12 36 6 36 -2 0 -4 -1 -5 -2z"/>
<path d="M3030 3538 c0 -4 4 -8 9 -8 6 0 12 4 15 8 3 5 -1 9 -9 9 -8 0 -15 -4
-15 -9z"/>
<path d="M3090 3541 c0 -6 4 -13 10 -16 6 -3 7 1 4 9 -7 18 -14 21 -14 7z"/>
<path d="M3115 3540 c3 -5 8 -10 11 -10 2 0 4 5 4 10 0 6 -5 10 -11 10 -5 0
-7 -4 -4 -10z"/>
<path d="M3163 3537 c-3 -7 -3 -9 2 -5 4 4 13 4 19 -1 14 -10 46 -22 46 -16 0
2 -13 10 -30 18 -22 12 -32 12 -37 4z"/>
<path d="M3227 3539 c7 -7 15 -10 18 -7 3 3 -2 9 -12 12 -14 6 -15 5 -6 -5z"/>
<path d="M2966 3522 c-3 -5 1 -9 9 -9 8 0 15 4 15 9 0 4 -4 8 -9 8 -6 0 -12
-4 -15 -8z"/>
<path d="M3348 3513 c-4 -13 0 -19 13 -19 14 0 16 3 6 16 -6 8 -12 16 -13 18
-1 1 -4 -5 -6 -15z"/>
<path d="M2764 3475 c-5 -11 -10 -13 -19 -5 -9 8 -15 8 -20 0 -3 -6 -11 -7
-17 -4 -7 4 -8 2 -4 -4 7 -11 -6 -17 -27 -13 -5 1 -6 -3 -2 -9 4 -7 13 -6 28
2 12 7 34 12 49 13 14 0 30 4 35 9 5 6 2 6 -6 1 -11 -6 -13 -4 -8 8 3 10 4 17
1 17 -2 0 -7 -7 -10 -15z"/>
<path d="M2810 3482 c0 -5 7 -9 15 -9 8 0 12 4 9 9 -3 4 -9 8 -15 8 -5 0 -9
-4 -9 -8z"/>
<path d="M3476 3462 c-3 -5 1 -9 9 -9 8 0 12 4 9 9 -3 4 -7 8 -9 8 -2 0 -6 -4
-9 -8z"/>
<path d="M3536 3442 c-3 -5 1 -9 9 -9 8 0 15 4 15 9 0 4 -4 8 -9 8 -6 0 -12
-4 -15 -8z"/>
<path d="M3573 3427 c-1 -11 -1 -18 0 -16 2 2 8 11 15 20 9 12 9 16 -1 16 -7
0 -14 -9 -14 -20z"/>
<path d="M3599 3428 c-5 -18 -6 -38 -1 -34 7 8 12 36 6 36 -2 0 -4 -1 -5 -2z"/>
<path d="M2627 3409 c7 -7 15 -10 18 -7 3 3 -2 9 -12 12 -14 6 -15 5 -6 -5z"/>
<path d="M3647 3399 c4 -13 8 -18 11 -10 2 7 -1 18 -6 23 -8 8 -9 4 -5 -13z"/>
<path d="M3703 3373 c9 -11 15 -22 12 -25 -3 -2 1 -5 9 -5 19 0 10 20 -17 36
-21 13 -22 13 -4 -6z"/>
<path d="M3750 3331 c0 -6 4 -13 10 -16 6 -3 7 1 4 9 -7 18 -14 21 -14 7z"/>
<path d="M3859 3233 c-11 -15 -11 -16 1 -6 11 10 16 9 26 -5 12 -15 12 -15 7
6 -6 27 -16 28 -34 5z"/>
<path d="M3910 3202 c0 -5 7 -9 15 -9 8 0 12 4 9 9 -3 4 -9 8 -15 8 -5 0 -9
-4 -9 -8z"/>
<path d="M4020 3059 c0 -5 5 -7 10 -4 6 3 10 8 10 11 0 2 -4 4 -10 4 -5 0 -10
-5 -10 -11z"/>
<path d="M4033 3015 c0 -7 6 -11 14 -8 7 3 13 6 13 8 0 2 -6 5 -13 8 -8 3 -14
-1 -14 -8z"/>
<path d="M4105 2880 c-3 -6 1 -7 9 -4 18 7 21 14 7 14 -6 0 -13 -4 -16 -10z"/>
<path d="M4141 2834 c0 -11 3 -14 6 -6 3 7 2 16 -1 19 -3 4 -6 -2 -5 -13z"/>
<path d="M4115 2009 c-4 -6 -5 -12 -2 -15 2 -3 7 2 10 11 7 17 1 20 -8 4z"/>
<path d="M2285 3060 c-4 -6 -13 -9 -21 -6 -8 3 -11 0 -7 -10 5 -13 8 -13 23 1
11 10 20 12 24 7 3 -6 0 -13 -6 -15 -9 -4 -10 -6 -1 -6 19 -1 24 16 9 28 -10
9 -16 9 -21 1z"/>
<path d="M2315 3020 c-4 -6 -3 -10 2 -9 21 4 33 -2 33 -17 0 -9 -5 -12 -12 -8
-7 4 -10 3 -5 -1 4 -5 18 -10 30 -11 12 -2 16 0 10 2 -7 3 -13 12 -13 19 0 19
-37 39 -45 25z"/>
<path d="M2180 2986 c0 -2 7 -6 15 -10 8 -3 15 -1 15 4 0 6 -7 10 -15 10 -8 0
-15 -2 -15 -4z"/>
<path d="M2159 2978 c-6 -20 -6 -39 0 -42 4 -3 7 6 7 20 0 20 -4 32 -7 22z"/>
<path d="M2384 2958 c-4 -7 -4 -10 1 -6 4 4 15 2 24 -5 14 -11 14 -10 2 6 -16
20 -18 21 -27 5z"/>
<path d="M2448 2901 c12 -10 18 -22 14 -26 -4 -5 -1 -5 6 -1 11 6 10 12 -4 27
-9 10 -22 19 -27 19 -6 0 0 -8 11 -19z"/>
<path d="M2499 2852 c8 -6 11 -16 8 -24 -3 -8 1 -15 8 -15 17 0 3 40 -16 45
-12 3 -12 2 0 -6z"/>
<path d="M2634 2708 c-4 -7 -4 -10 1 -6 4 4 16 3 26 -3 11 -5 19 -7 19 -5 0 3
-9 10 -19 16 -15 7 -22 7 -27 -2z"/>
<path d="M2050 2678 c0 -3 9 -6 20 -5 11 1 20 5 20 9 0 3 -9 6 -20 5 -11 -1
-20 -5 -20 -9z"/>
<path d="M2690 2660 c0 -5 5 -10 11 -10 5 0 8 -4 5 -8 -3 -5 1 -9 9 -9 13 0
12 4 -2 19 -18 21 -23 22 -23 8z"/>
<path d="M2730 2611 c0 -10 19 -25 25 -20 1 2 -3 10 -11 17 -8 7 -14 8 -14 3z"/>
<path d="M2832 2535 c4 -4 3 -16 -3 -26 -5 -11 -7 -19 -5 -19 3 0 10 9 16 19
7 15 7 22 -2 27 -7 4 -10 4 -6 -1z"/>
<path d="M2835 2481 c-3 -5 -2 -12 3 -15 5 -3 9 1 9 9 0 17 -3 19 -12 6z"/>
<path d="M2954 2376 c1 -8 5 -18 8 -22 4 -3 5 1 4 10 -1 8 -5 18 -8 22 -4 3
-5 -1 -4 -10z"/>
<path d="M2985 2369 c-4 -6 -5 -12 -2 -15 2 -3 7 2 10 11 7 17 1 20 -8 4z"/>
<path d="M3030 2309 c0 -5 5 -7 10 -4 6 3 10 8 10 11 0 2 -4 4 -10 4 -5 0 -10
-5 -10 -11z"/>
<path d="M3100 2263 c0 -6 5 -15 10 -18 6 -4 8 -10 5 -15 -3 -4 2 -11 10 -14
12 -4 13 -2 6 12 -21 36 -31 47 -31 35z"/>
<path d="M3160 2190 c-9 -6 -10 -10 -3 -10 6 0 15 5 18 10 8 12 4 12 -15 0z"/>
<path d="M3154 2162 c4 -3 14 -7 22 -8 9 -1 13 0 10 4 -4 3 -14 7 -22 8 -9 1
-13 0 -10 -4z"/>
<path d="M3299 2033 c-13 -17 -13 -17 6 -3 11 8 22 16 24 17 2 2 0 3 -6 3 -6
0 -17 -8 -24 -17z"/>
<path d="M3391 1963 c-1 -17 16 -25 25 -12 4 7 3 9 -4 5 -5 -3 -13 0 -15 6 -4
9 -6 10 -6 1z"/>
<path d="M3436 1922 c-3 -5 1 -9 9 -9 8 0 12 4 9 9 -3 4 -7 8 -9 8 -2 0 -6 -4
-9 -8z"/>
<path d="M3435 1880 c-3 -5 -1 -10 4 -10 6 0 11 5 11 10 0 6 -2 10 -4 10 -3 0
-8 -4 -11 -10z"/>
<path d="M3476 1868 c3 -5 10 -6 15 -3 13 9 11 12 -6 12 -8 0 -12 -4 -9 -9z"/>
<path d="M3535 1810 c3 -4 14 -10 25 -13 11 -3 18 -2 15 3 -3 4 -14 10 -25 13
-11 3 -18 2 -15 -3z"/>
<path d="M3630 1722 c0 -5 7 -9 15 -9 8 0 12 4 9 9 -3 4 -9 8 -15 8 -5 0 -9
-4 -9 -8z"/>
<path d="M3667 1659 c7 -7 15 -10 18 -7 3 3 -2 9 -12 12 -14 6 -15 5 -6 -5z"/>
<path d="M3713 1640 c8 -14 21 -25 28 -25 8 0 14 -9 13 -21 -1 -11 4 -21 11
-21 7 0 12 6 11 13 -3 17 -38 56 -44 49 -3 -2 -12 3 -20 13 -12 14 -12 13 1
-8z"/>
<path d="M1641 2257 c-8 -10 -7 -18 3 -32 10 -14 15 -15 21 -5 5 8 4 11 -2 7
-15 -10 -24 18 -10 32 6 6 8 11 5 11 -3 0 -11 -6 -17 -13z"/>
<path d="M1612 2218 c-7 -7 -12 -16 -12 -21 0 -5 7 -1 16 8 9 9 14 18 12 20
-2 3 -10 -1 -16 -7z"/>
<path d="M1635 2189 c-4 -6 -5 -12 -2 -15 2 -3 7 2 10 11 7 17 1 20 -8 4z"/>
<path d="M1589 2163 c-13 -16 -12 -17 4 -4 9 7 17 15 17 17 0 8 -8 3 -21 -13z"/>
<path d="M1495 2060 c-3 -5 -1 -10 4 -10 6 0 11 5 11 10 0 6 -2 10 -4 10 -3 0
-8 -4 -11 -10z"/>
<path d="M4536 2062 c-3 -4 4 -9 15 -9 23 -2 25 3 4 10 -8 4 -16 3 -19 -1z"/>
<path d="M1699 2033 c-13 -16 -12 -17 4 -4 9 7 17 15 17 17 0 8 -8 3 -21 -13z"/>
<path d="M1450 1996 c0 -2 8 -10 18 -17 15 -13 16 -12 3 4 -13 16 -21 21 -21
13z"/>
<path d="M1437 1973 c-4 -3 -7 -11 -7 -17 0 -6 5 -5 12 2 6 6 9 14 7 17 -3 3
-9 2 -12 -2z"/>
<path d="M1720 1960 c-9 -6 -10 -10 -3 -10 6 0 15 5 18 10 8 12 4 12 -15 0z"/>
<path d="M4507 1919 c7 -7 15 -10 18 -7 3 3 -2 9 -12 12 -14 6 -15 5 -6 -5z"/>
<path d="M1392 1872 c-22 -17 -22 -18 -3 -18 11 0 18 2 16 5 -3 2 0 10 6 18
15 18 9 16 -19 -5z"/>
<path d="M4470 1886 c0 -2 9 -6 20 -9 11 -3 18 -1 14 4 -5 9 -34 13 -34 5z"/>
<path d="M1333 1795 c0 -8 4 -12 9 -9 4 3 8 9 8 15 0 5 -4 9 -8 9 -5 0 -9 -7
-9 -15z"/>
<path d="M1796 1767 c3 -10 9 -15 12 -12 3 3 0 11 -7 18 -10 9 -11 8 -5 -6z"/>
<path d="M4435 1760 c-3 -5 -1 -10 4 -10 6 0 11 5 11 10 0 6 -2 10 -4 10 -3 0
-8 -4 -11 -10z"/>
<path d="M4399 1733 c-13 -16 -12 -17 4 -4 9 7 17 15 17 17 0 8 -8 3 -21 -13z"/>
<path d="M1256 1714 c-8 -20 -8 -24 2 -24 4 0 8 9 9 20 2 24 -3 26 -11 4z"/>
<path d="M1255 1671 c-3 -5 -2 -12 3 -15 5 -3 9 1 9 9 0 17 -3 19 -12 6z"/>
<path d="M1215 1649 c-4 -6 -5 -12 -2 -15 2 -3 7 2 10 11 7 17 1 20 -8 4z"/>
<path d="M4335 1631 c-3 -5 0 -13 6 -17 7 -4 9 -3 5 4 -3 5 0 13 6 15 9 4 10
6 1 6 -6 1 -14 -3 -18 -8z"/>
<path d="M1164 1589 c-19 -22 -19 -22 4 -8 12 8 22 17 22 21 0 12 -6 9 -26
-13z"/>
<path d="M4315 1600 c3 -5 8 -10 11 -10 2 0 4 5 4 10 0 6 -5 10 -11 10 -5 0
-7 -4 -4 -10z"/>
<path d="M1915 1580 c-3 -5 -1 -10 4 -10 6 0 11 5 11 10 0 6 -2 10 -4 10 -3 0
-8 -4 -11 -10z"/>
<path d="M1165 1560 c-3 -6 1 -7 9 -4 18 7 21 14 7 14 -6 0 -13 -4 -16 -10z"/>
<path d="M1957 1549 c7 -7 15 -10 18 -7 3 3 -2 9 -12 12 -14 6 -15 5 -6 -5z"/>
<path d="M1993 1475 c0 -8 4 -12 9 -9 5 3 6 10 3 15 -9 13 -12 11 -12 -6z"/>
<path d="M2025 1479 c-4 -6 -5 -12 -2 -15 2 -3 7 2 10 11 7 17 1 20 -8 4z"/>
<path d="M2020 1445 c0 -2 6 -8 13 -14 10 -8 14 -7 14 2 0 8 -6 14 -14 14 -7
0 -13 -1 -13 -2z"/>
<path d="M2099 1403 c7 -13 15 -23 20 -23 4 0 13 -10 19 -22 6 -13 11 -18 11
-11 1 6 -13 27 -30 45 -22 23 -28 26 -20 11z"/>
<path d="M1015 1340 c-3 -5 -1 -10 4 -10 6 0 11 5 11 10 0 6 -2 10 -4 10 -3 0
-8 -4 -11 -10z"/>
<path d="M2175 1320 c-3 -6 1 -7 10 -4 11 5 14 2 9 -12 -5 -15 -4 -16 4 -4 11
15 7 30 -8 30 -5 0 -12 -4 -15 -10z"/>
<path d="M4038 1303 c6 -3 10 -8 8 -12 -3 -4 0 -13 6 -21 8 -12 9 -12 4 3 -6
19 10 24 17 5 4 -10 6 -10 6 0 1 6 2 15 4 18 1 4 -11 8 -28 9 -16 2 -24 1 -17
-2z"/>
<path d="M3893 1198 c-18 -23 -25 -43 -8 -23 9 11 21 19 26 17 6 -1 8 2 4 8
-8 13 -10 13 -22 -2z"/>
<path d="M4170 1196 c0 -8 7 -17 16 -20 23 -9 24 -4 2 17 -14 13 -18 14 -18 3z"/>
<path d="M2348 1183 c6 -2 9 -10 6 -15 -4 -7 -2 -8 5 -4 13 9 5 26 -12 25 -9
0 -8 -2 1 -6z"/>
<path d="M2386 1169 c3 -5 10 -7 15 -4 5 4 9 1 9 -4 0 -6 5 -11 12 -11 9 0 9
3 0 12 -14 14 -44 20 -36 7z"/>
<path d="M4160 1160 c-9 -6 -10 -10 -3 -10 6 0 15 5 18 10 8 12 4 12 -15 0z"/>
<path d="M3822 1147 c10 -8 14 -18 10 -22 -4 -5 -1 -5 6 -1 17 10 15 14 -10
26 -21 10 -21 10 -6 -3z"/>
<path d="M3794 1142 c3 -5 0 -12 -6 -15 -7 -2 -10 -7 -7 -11 3 -4 12 0 18 8 9
11 9 16 0 22 -7 4 -9 3 -5 -4z"/>
<path d="M4190 1140 c0 -5 5 -10 11 -10 5 0 7 5 4 10 -3 6 -8 10 -11 10 -2 0
-4 -4 -4 -10z"/>
<path d="M2540 1095 c-7 -9 -11 -17 -9 -20 3 -2 10 5 17 15 14 24 10 26 -8 5z"/>
<path d="M2598 1074 c-4 -17 -1 -21 18 -19 14 0 24 4 24 8 0 4 0 10 0 13 0 4
-6 1 -14 -5 -11 -10 -15 -8 -18 6 -3 16 -4 16 -10 -3z"/>
<path d="M3670 1086 c0 -2 7 -7 16 -10 8 -3 12 -2 9 4 -6 10 -25 14 -25 6z"/>
<path d="M4250 1080 c0 -5 5 -10 11 -10 5 0 7 5 4 10 -3 6 -8 10 -11 10 -2 0
-4 -4 -4 -10z"/>
<path d="M4290 1083 c0 -14 39 -53 54 -53 6 0 1 7 -11 15 -13 9 -27 23 -32 33
-6 9 -11 12 -11 5z"/>
<path d="M3610 1061 c0 -6 4 -13 10 -16 6 -3 7 1 4 9 -7 18 -14 21 -14 7z"/>
<path d="M3535 1040 c-3 -5 -1 -10 4 -10 6 0 11 5 11 10 0 6 -2 10 -4 10 -3 0
-8 -4 -11 -10z"/>
<path d="M2754 1029 c-3 -6 -3 -13 0 -16 3 -4 6 -1 6 6 0 7 4 10 10 6 5 -3 7
-13 4 -23 -4 -10 -2 -13 3 -7 4 6 11 12 15 15 4 3 -1 11 -12 18 -13 8 -21 8
-26 1z"/>
<path d="M3497 1023 c3 -7 6 -13 8 -13 2 0 5 6 8 13 3 8 -1 14 -8 14 -7 0 -11
-6 -8 -14z"/>
<path d="M390 1026 c0 -2 9 -6 20 -9 11 -3 18 -1 14 4 -5 9 -34 13 -34 5z"/>
<path d="M3467 1015 c3 -8 9 -12 14 -9 12 7 11 11 -5 17 -10 4 -13 1 -9 -8z"/>
<path d="M761 997 c-13 -21 -12 -21 5 -5 10 10 16 20 13 22 -3 3 -11 -5 -18
-17z"/>
<path d="M4723 1008 c-22 -28 -24 -38 -8 -32 9 4 13 9 11 12 -3 3 -1 11 5 19
6 7 9 13 6 13 -2 0 -9 -6 -14 -12z"/>
<path d="M515 980 c3 -5 8 -10 11 -10 2 0 4 5 4 10 0 6 -5 10 -11 10 -5 0 -7
-4 -4 -10z"/>
<path d="M568 972 c4 -10 7 -12 10 -4 2 7 9 9 15 5 7 -3 8 -2 4 2 -14 16 -36
14 -29 -3z"/>
<path d="M620 980 c-8 -5 -10 -10 -5 -10 6 0 17 5 25 10 8 5 11 10 5 10 -5 0
-17 -5 -25 -10z"/>
<path d="M3106 977 c3 -10 9 -15 12 -12 3 3 0 11 -7 18 -10 9 -11 8 -5 -6z"/>
<path d="M3150 980 c0 -5 9 -8 20 -7 21 1 18 10 -5 13 -8 1 -15 -2 -15 -6z"/>
<path d="M4435 980 c6 -10 4 -12 -11 -6 -15 6 -17 5 -6 -5 9 -9 15 -10 23 -2
8 8 7 13 -2 18 -8 6 -10 4 -4 -5z"/>
<path d="M4467 973 c3 -7 6 -13 8 -13 2 0 5 6 8 13 3 8 -1 14 -8 14 -7 0 -11
-6 -8 -14z"/>
<path d="M4535 981 c3 -6 14 -9 25 -8 23 2 17 10 -11 14 -11 2 -18 -1 -14 -6z"/>
<path d="M2997 963 c3 -7 6 -13 8 -13 1 0 7 6 13 13 8 10 6 13 -7 13 -11 0
-17 -6 -14 -13z"/>
<path d="M3210 970 c-9 -6 -10 -10 -3 -10 6 0 15 5 18 10 8 12 4 12 -15 0z"/>
<path d="M4677 973 c-10 -9 -9 -23 1 -23 5 0 9 7 9 15 0 17 -1 18 -10 8z"/>
<path d="M640 960 c-9 -6 -10 -10 -3 -10 6 0 15 5 18 10 8 12 4 12 -15 0z"/>
<path d="M670 960 c0 -5 5 -10 11 -10 5 0 7 5 4 10 -3 6 -8 10 -11 10 -2 0 -4
-4 -4 -10z"/>
<path d="M4495 960 c3 -5 8 -10 11 -10 2 0 4 5 4 10 0 6 -5 10 -11 10 -5 0 -7
-4 -4 -10z"/>
<path d="M4590 961 c0 -6 4 -13 10 -16 6 -3 7 1 4 9 -7 18 -14 21 -14 7z"/>
<path d="M4611 967 c2 -1 13 -9 24 -17 19 -14 19 -14 6 3 -7 9 -18 17 -24 17
-6 0 -8 -1 -6 -3z"/>
</g>
</svg>
